<?xml version="1.0" encoding="UTF-8" standalone="no"?><svg xmlns="http://www.w3.org/2000/svg" xmlns:xlink="http://www.w3.org/1999/xlink" contentStyleType="text/css" height="473px" preserveAspectRatio="none" style="width:228px;height:473px;background:#FFFFFF;" version="1.1" viewBox="0 0 228 473" width="228px" zoomAndPan="magnify"><defs/><g><!--MD5=[7231450f633845da6e92cf0373678125]
class Chantier--><g id="elem_Chantier"><rect codeLine="1" fill="#F1F1F1" height="129.4844" id="Chantier" rx="2.5" ry="2.5" style="stroke:#181818;stroke-width:0.5;" width="132" x="7" y="337"/><ellipse cx="39.1" cy="353" fill="#ADD1B2" rx="11" ry="11" style="stroke:#181818;stroke-width:1.0;"/><path d="M41.4438,348.6719 C40.5063,348.2344 39.9125,348.0938 39.0375,348.0938 C36.4125,348.0938 34.4125,350.1719 34.4125,352.8906 L34.4125,354.0156 C34.4125,356.5938 36.5219,358.4844 39.4125,358.4844 C40.6313,358.4844 41.7875,358.1875 42.5375,357.6406 C43.1156,357.2344 43.4438,356.7813 43.4438,356.3906 C43.4438,355.9375 43.0531,355.5469 42.5844,355.5469 C42.3656,355.5469 42.1625,355.625 41.975,355.8125 C41.5219,356.2969 41.5219,356.2969 41.3344,356.3906 C40.9125,356.6563 40.225,356.7813 39.4594,356.7813 C37.4125,356.7813 36.1156,355.6875 36.1156,353.9844 L36.1156,352.8906 C36.1156,351.1094 37.3656,349.7969 39.1,349.7969 C39.6781,349.7969 40.2875,349.9531 40.7563,350.2031 C41.2406,350.4844 41.4125,350.7031 41.5063,351.1094 C41.5688,351.5156 41.6,351.6406 41.7406,351.7656 C41.8813,351.9063 42.1156,352.0156 42.3344,352.0156 C42.6,352.0156 42.8656,351.875 43.0375,351.6563 C43.1469,351.5 43.1781,351.3125 43.1781,350.8906 L43.1781,349.4688 C43.1781,349.0313 43.1625,348.9063 43.0688,348.75 C42.9125,348.4844 42.6313,348.3438 42.3344,348.3438 C42.0375,348.3438 41.8344,348.4375 41.6156,348.75 L41.4438,348.6719 Z " fill="#000000"/><text fill="#000000" font-family="sans-serif" font-size="14" lengthAdjust="spacing" textLength="62" x="56.9" y="357.8467">Chantier</text><line style="stroke:#181818;stroke-width:0.5;" x1="8" x2="138" y1="369" y2="369"/><text fill="#000000" font-family="sans-serif" font-size="14" lengthAdjust="spacing" textLength="44" x="13" y="385.9951">dateD</text><text fill="#000000" font-family="sans-serif" font-size="14" lengthAdjust="spacing" textLength="41" x="13" y="402.292">dateF</text><text fill="#000000" font-family="sans-serif" font-size="14" lengthAdjust="spacing" textLength="55" x="13" y="418.5889">adresse</text><line style="stroke:#181818;stroke-width:0.5;" x1="8" x2="138" y1="425.8906" y2="425.8906"/><text fill="#000000" font-family="sans-serif" font-size="14" lengthAdjust="spacing" textLength="92" x="13" y="442.8857">getAdresse()</text><text fill="#000000" font-family="sans-serif" font-size="14" lengthAdjust="spacing" textLength="120" x="13" y="459.1826">affecterArtisan()</text></g><!--MD5=[e8de2477f0619782a88ba6174d99456f]
class Artisan--><g id="elem_Artisan"><rect codeLine="9" fill="#F1F1F1" height="96.8906" id="Artisan" rx="2.5" ry="2.5" style="stroke:#181818;stroke-width:0.5;" width="98" x="24" y="7"/><ellipse cx="45.75" cy="23" fill="#ADD1B2" rx="11" ry="11" style="stroke:#181818;stroke-width:1.0;"/><path d="M48.0938,18.6719 C47.1563,18.2344 46.5625,18.0938 45.6875,18.0938 C43.0625,18.0938 41.0625,20.1719 41.0625,22.8906 L41.0625,24.0156 C41.0625,26.5938 43.1719,28.4844 46.0625,28.4844 C47.2813,28.4844 48.4375,28.1875 49.1875,27.6406 C49.7656,27.2344 50.0938,26.7813 50.0938,26.3906 C50.0938,25.9375 49.7031,25.5469 49.2344,25.5469 C49.0156,25.5469 48.8125,25.625 48.625,25.8125 C48.1719,26.2969 48.1719,26.2969 47.9844,26.3906 C47.5625,26.6563 46.875,26.7813 46.1094,26.7813 C44.0625,26.7813 42.7656,25.6875 42.7656,23.9844 L42.7656,22.8906 C42.7656,21.1094 44.0156,19.7969 45.75,19.7969 C46.3281,19.7969 46.9375,19.9531 47.4063,20.2031 C47.8906,20.4844 48.0625,20.7031 48.1563,21.1094 C48.2188,21.5156 48.25,21.6406 48.3906,21.7656 C48.5313,21.9063 48.7656,22.0156 48.9844,22.0156 C49.25,22.0156 49.5156,21.875 49.6875,21.6563 C49.7969,21.5 49.8281,21.3125 49.8281,20.8906 L49.8281,19.4688 C49.8281,19.0313 49.8125,18.9063 49.7188,18.75 C49.5625,18.4844 49.2813,18.3438 48.9844,18.3438 C48.6875,18.3438 48.4844,18.4375 48.2656,18.75 L48.0938,18.6719 Z " fill="#000000"/><text fill="#000000" font-family="sans-serif" font-size="14" lengthAdjust="spacing" textLength="51" x="61.25" y="27.8467">Artisan</text><line style="stroke:#181818;stroke-width:0.5;" x1="25" x2="121" y1="39" y2="39"/><text fill="#000000" font-family="sans-serif" font-size="14" lengthAdjust="spacing" textLength="46" x="30" y="55.9951">salaire</text><text fill="#000000" font-family="sans-serif" font-size="14" lengthAdjust="spacing" textLength="86" x="30" y="72.292">coordonnee</text><line style="stroke:#181818;stroke-width:0.5;" x1="25" x2="121" y1="79.5938" y2="79.5938"/><text fill="#000000" font-family="sans-serif" font-size="14" lengthAdjust="spacing" textLength="69" x="30" y="96.5889">getPaye()</text></g><!--MD5=[ad0feda0bfa01980b1dda5b6225f9fe0]
class Travailler--><g id="elem_Travailler"><rect codeLine="15" fill="#F1F1F1" height="113.1875" id="Travailler" rx="2.5" ry="2.5" style="stroke:#181818;stroke-width:0.5;" width="111" x="110.5" y="164"/><ellipse cx="131.35" cy="180" fill="#ADD1B2" rx="11" ry="11" style="stroke:#181818;stroke-width:1.0;"/><path d="M133.6938,175.6719 C132.7563,175.2344 132.1625,175.0938 131.2875,175.0938 C128.6625,175.0938 126.6625,177.1719 126.6625,179.8906 L126.6625,181.0156 C126.6625,183.5938 128.7719,185.4844 131.6625,185.4844 C132.8813,185.4844 134.0375,185.1875 134.7875,184.6406 C135.3656,184.2344 135.6938,183.7813 135.6938,183.3906 C135.6938,182.9375 135.3031,182.5469 134.8344,182.5469 C134.6156,182.5469 134.4125,182.625 134.225,182.8125 C133.7719,183.2969 133.7719,183.2969 133.5844,183.3906 C133.1625,183.6563 132.475,183.7813 131.7094,183.7813 C129.6625,183.7813 128.3656,182.6875 128.3656,180.9844 L128.3656,179.8906 C128.3656,178.1094 129.6156,176.7969 131.35,176.7969 C131.9281,176.7969 132.5375,176.9531 133.0063,177.2031 C133.4906,177.4844 133.6625,177.7031 133.7563,178.1094 C133.8188,178.5156 133.85,178.6406 133.9906,178.7656 C134.1313,178.9063 134.3656,179.0156 134.5844,179.0156 C134.85,179.0156 135.1156,178.875 135.2875,178.6563 C135.3969,178.5 135.4281,178.3125 135.4281,177.8906 L135.4281,176.4688 C135.4281,176.0313 135.4125,175.9063 135.3188,175.75 C135.1625,175.4844 134.8813,175.3438 134.5844,175.3438 C134.2875,175.3438 134.0844,175.4375 133.8656,175.75 L133.6938,175.6719 Z " fill="#000000"/><text fill="#000000" font-family="sans-serif" font-size="14" lengthAdjust="spacing" textLength="66" x="146.65" y="184.8467">Travailler</text><line style="stroke:#181818;stroke-width:0.5;" x1="111.5" x2="220.5" y1="196" y2="196"/><text fill="#000000" font-family="sans-serif" font-size="14" lengthAdjust="spacing" textLength="61" x="116.5" y="212.9951">nbHeure</text><text fill="#000000" font-family="sans-serif" font-size="14" lengthAdjust="spacing" textLength="80" x="116.5" y="229.292">debMission</text><text fill="#000000" font-family="sans-serif" font-size="14" lengthAdjust="spacing" textLength="71" x="116.5" y="245.5889">finMission</text><line style="stroke:#181818;stroke-width:0.5;" x1="111.5" x2="220.5" y1="252.8906" y2="252.8906"/><text fill="#000000" font-family="sans-serif" font-size="14" lengthAdjust="spacing" textLength="99" x="116.5" y="269.8857">calculerPaye()</text></g><ellipse cx="73" cy="220.5" fill="#000000" rx="2" ry="2" style="stroke:none;stroke-width:1.0;"/><!--MD5=[af19d213eeeea0aab2e805bfe544132a]
link Artisan to apoint1130192--><g id="link_Artisan_apoint1130192"><path d="M73,104.085 C73,148.437 73,209.101 73,218.309 " fill="none" id="Artisan-apoint1130192" style="stroke:#181818;stroke-width:1.0;"/><text fill="#000000" font-family="sans-serif" font-size="13" lengthAdjust="spacing" textLength="23" x="48.3828" y="124.0559">1..*</text></g><!--MD5=[1fb242c12f7fcb56ccb592cb3b4daa15]
link apoint1130192 to Chantier--><g id="link_apoint1130192_Chantier"><path d="M73,222.643 C73,231.457 73,289.524 73,336.95 " fill="none" id="apoint1130192-Chantier" style="stroke:#181818;stroke-width:1.0;"/><text fill="#000000" font-family="sans-serif" font-size="13" lengthAdjust="spacing" textLength="23" x="48.7422" y="326.1172">0..*</text></g><!--MD5=[675b728e5479f1c844f364ece322d89b]
link apoint1130192 to Travailler--><g id="link_apoint1130192_Travailler"><path d="M75.1797,220.5 C86.887,220.5 98.5943,220.5 110.302,220.5 " fill="none" id="apoint1130192-Travailler" style="stroke:#181818;stroke-width:1.0;stroke-dasharray:7.0,7.0;"/></g><!--MD5=[a97345c9350e513a8ff227efc075f839]
@startuml
class Chantier{
    dateD
    dateF
    adresse
    getAdresse()
    affecterArtisan()
}

class Artisan{
    salaire
    coordonnee
    getPaye()
}

class Travailler{
    nbHeure
    debMission
    finMission
    calculerPaye()
}

Artisan "1..*" - - "0..*" Chantier
(Artisan,Chantier) .. Travailler
@enduml

PlantUML version 1.2022.2(Sat Mar 05 16:30:19 UTC 2022)
(GPL source distribution)
Java Runtime: Java(TM) SE Runtime Environment
JVM: Java HotSpot(TM) 64-Bit Server VM
Default Encoding: UTF-8
Language: en
Country: US
--></g></svg>